<svg
    xmlns="http://www.w3.org/2000/svg"
    viewBox="0 0 210 210"
    id="vector">
    <path
        id="path"
        d="M 33.736 86.705 C 37.033 89.376 41.003 90.674 44.95 90.674 C 50.156 90.674 55.316 88.416 58.841 84.066 C 65.031 76.415 63.85 65.155 56.203 58.963 C 52.5 55.963 47.867 54.584 43.102 55.082 C 38.361 55.58 34.096 57.894 31.094 61.6 C 28.092 65.306 26.717 69.957 27.213 74.699 C 27.712 79.44 30.029 83.703 33.736 86.705 Z M 37.261 66.591 C 38.927 64.532 41.297 63.246 43.931 62.969 C 44.284 62.932 44.636 62.915 44.985 62.915 C 47.247 62.915 49.424 63.682 51.21 65.127 C 55.456 68.567 56.114 74.823 52.674 79.072 C 49.234 83.323 42.97 83.978 38.725 80.538 C 36.668 78.87 35.378 76.502 35.103 73.868 C 34.828 71.234 35.592 68.65 37.261 66.591 Z"
        fill="#000000"/>
    <path
        id="path_1"
        d="M 113.468 134.565 C 108.959 133.014 104.121 133.308 99.833 135.4 C 95.549 137.49 92.334 141.123 90.78 145.632 C 89.226 150.141 89.525 154.985 91.613 159.267 C 93.705 163.553 97.338 166.768 101.847 168.32 C 103.749 168.976 105.713 169.302 107.673 169.302 C 110.346 169.302 113.007 168.694 115.483 167.487 C 119.767 165.397 122.982 161.763 124.536 157.255 C 126.09 152.747 125.791 147.902 123.699 143.618 C 121.611 139.334 117.977 136.118 113.468 134.565 Z M 117.032 154.671 C 116.172 157.177 114.386 159.195 112.004 160.356 C 109.622 161.517 106.941 161.686 104.427 160.819 C 101.924 159.957 99.907 158.171 98.744 155.791 C 97.582 153.411 97.419 150.72 98.283 148.216 C 99.143 145.71 100.929 143.692 103.311 142.531 C 104.706 141.849 106.185 141.528 107.642 141.528 C 111.314 141.528 114.851 143.577 116.571 147.096 C 117.733 149.477 117.896 152.167 117.032 154.671 Z"
        fill="#000000"/>
    <path
        id="path_2"
        d="M 150.694 107 C 148.168 102.956 144.217 100.14 139.569 99.065 C 134.936 98 130.148 98.794 126.096 101.321 C 122.052 103.849 119.236 107.798 118.163 112.444 C 115.951 122.033 121.952 131.636 131.543 133.852 C 132.887 134.162 134.231 134.311 135.556 134.311 C 143.679 134.311 151.047 128.717 152.949 120.474 C 154.022 115.83 153.22 111.044 150.694 107 Z M 145.217 118.691 C 143.989 124.015 138.666 127.343 133.325 126.123 C 127.999 124.891 124.663 119.555 125.895 114.227 C 126.488 111.647 128.056 109.455 130.303 108.051 C 131.899 107.053 133.7 106.54 135.536 106.54 C 136.284 106.54 137.039 106.625 137.787 106.796 C 140.367 107.393 142.563 108.959 143.965 111.206 C 145.372 113.449 145.814 116.109 145.217 118.691 Z"
        fill="#000000"/>
    <path
        id="path_3"
        d="M 52.403 112.444 C 51.33 107.797 48.514 103.848 44.47 101.321 C 40.426 98.794 35.638 97.991 30.997 99.066 C 26.348 100.139 22.397 102.955 19.872 106.999 C 17.347 111.043 16.544 115.829 17.617 120.472 C 19.519 128.717 26.887 134.309 35.01 134.309 C 36.335 134.309 37.679 134.162 39.023 133.85 C 48.615 131.636 54.615 122.033 52.403 112.444 Z M 37.242 126.12 C 31.92 127.356 26.582 124.014 25.35 118.688 C 24.753 116.108 25.195 113.449 26.601 111.204 C 28.003 108.957 30.2 107.39 32.779 106.796 C 33.527 106.623 34.282 106.539 35.03 106.539 C 36.866 106.539 38.667 107.052 40.263 108.05 C 42.51 109.454 44.079 111.647 44.671 114.226 C 45.903 119.554 42.568 124.891 37.242 126.12 Z"
        fill="#000000"/>
    <path
        id="path_4"
        d="M 103.133 53.417 C 103.133 43.574 95.126 35.567 85.283 35.567 C 75.44 35.567 67.433 43.574 67.433 53.417 C 67.433 63.26 75.44 71.267 85.283 71.267 C 95.126 71.267 103.133 63.26 103.133 53.417 Z M 85.283 63.333 C 79.813 63.333 75.366 58.884 75.366 53.416 C 75.366 47.948 79.813 43.499 85.283 43.499 C 90.753 43.499 95.2 47.948 95.2 53.416 C 95.2 58.884 90.753 63.333 85.283 63.333 Z"
        fill="#000000"/>
    <path
        id="path_5"
        d="M 125.616 90.674 C 129.563 90.674 133.534 89.376 136.83 86.705 C 140.537 83.703 142.854 79.44 143.353 74.697 C 143.849 69.956 142.474 65.303 139.472 61.598 C 133.278 53.951 122.013 52.772 114.367 58.96 C 106.716 65.154 105.535 76.415 111.725 84.065 C 115.25 88.415 120.41 90.674 125.616 90.674 Z M 119.356 65.127 C 123.613 61.681 129.865 62.344 133.305 66.591 C 134.975 68.65 135.738 71.234 135.462 73.868 C 135.187 76.502 133.897 78.871 131.84 80.538 C 127.583 83.984 121.335 83.323 117.891 79.072 C 114.452 74.823 115.111 68.567 119.356 65.127 Z"
        fill="#000000"/>
    <path
        id="path_6"
        d="M 70.734 135.4 C 66.446 133.308 61.607 133.012 57.099 134.565 C 52.591 136.118 48.957 139.333 46.869 143.618 C 44.777 147.902 44.479 152.746 46.032 157.255 C 47.585 161.764 50.8 165.397 55.085 167.487 C 57.56 168.694 60.221 169.302 62.895 169.302 C 64.851 169.302 66.819 168.977 68.721 168.32 C 73.23 166.769 76.863 163.553 78.951 159.269 C 81.043 154.985 81.341 150.141 79.788 145.632 C 78.235 141.123 75.018 137.489 70.734 135.4 Z M 71.818 155.793 C 70.66 158.171 68.641 159.957 66.139 160.819 C 63.629 161.687 60.944 161.516 58.562 160.356 C 56.18 159.196 54.394 157.178 53.534 154.671 C 52.67 152.167 52.833 149.476 53.995 147.096 C 55.715 143.577 59.252 141.528 62.924 141.528 C 64.381 141.528 65.86 141.85 67.255 142.531 C 69.637 143.691 71.423 145.709 72.283 148.216 C 73.147 150.72 72.984 153.41 71.818 155.793 Z"
        fill="#000000"/>
    <path
        id="path_7"
        d="M 210.209 185.862 C 209.97 183.687 208.033 182.101 205.829 182.358 C 173.77 185.875 160.976 148.932 160.445 147.357 C 160.31 146.954 160.074 146.623 159.835 146.298 C 166.652 134.047 170.568 119.97 170.568 104.983 C 170.568 57.958 132.311 19.7 85.285 19.7 C 38.259 19.7 0 57.959 0 104.983 C 0 152.007 38.257 190.266 85.283 190.266 C 113.925 190.266 139.255 176.028 154.728 154.307 C 159.462 164.842 173.846 190.533 201.536 190.533 C 203.21 190.533 204.933 190.438 206.703 190.241 C 208.88 190.001 210.449 188.039 210.209 185.862 Z M 85.283 182.333 C 42.633 182.333 7.933 147.634 7.933 104.983 C 7.933 62.332 42.633 27.633 85.283 27.633 C 127.933 27.633 162.633 62.332 162.633 104.983 C 162.633 147.634 127.933 182.333 85.283 182.333 Z"
        fill="#000000"/>
</svg>
